PathFileType	4	(X/Y/Z)	s03c0203.trc
DataRate	CameraRate	NumFrames	NumMarkers	Units	OrigDataRate	OrigDataStartFrame	OrigNumFrames
200	200	5	50	mm	200	750	2000
Frame#	Time	racr			lacr			c7			jug			rlel			rdr			llel			ldr			s2			lic			ric			lasi			rasi			rpsi			lpsi			rgt			lgt			rth1			rth2			rth3			rth4			rlfc			rmfc			rsh1			rsh2			rsh3			rsh4			rlmal			rcal			rtoe			rmt5			rmt1			lth1			lth2			lth4			lth3			llfc			lmfc			lsh1			lsh2			lsh3			lsh4			llmal			lcal			ltoe			lmt1			lmt5			SBIKE			LBIKE			RBIKE			
		X1	Y1	Z1	X2	Y2	Z2	X3	Y3	Z3	X4	Y4	Z4	X5	Y5	Z5	X6	Y6	Z6	X7	Y7	Z7	X8	Y8	Z8	X9	Y9	Z9	X10	Y10	Z10	X11	Y11	Z11	X12	Y12	Z12	X13	Y13	Z13	X14	Y14	Z14	X15	Y15	Z15	X16	Y16	Z16	X17	Y17	Z17	X18	Y18	Z18	X19	Y19	Z19	X20	Y20	Z20	X21	Y21	Z21	X22	Y22	Z22	X23	Y23	Z23	X24	Y24	Z24	X25	Y25	Z25	X26	Y26	Z26	X27	Y27	Z27	X28	Y28	Z28	X29	Y29	Z29	X30	Y30	Z30	X31	Y31	Z31	X32	Y32	Z32	X33	Y33	Z33	X34	Y34	Z34	X35	Y35	Z35	X36	Y36	Z36	X37	Y37	Z37	X38	Y38	Z38	X39	Y39	Z39	X40	Y40	Z40	X41	Y41	Z41	X42	Y42	Z42	X43	Y43	Z43	X44	Y44	Z44	X45	Y45	Z45	X46	Y46	Z46	X47	Y47	Z47	X48	Y48	Z48	X49	Y49	Z49	X50	Y50	Z50	
750	3.7500	560.743128	1399.244389	-155.225260	496.302924	1415.394155	-460.457657	459.279201	1492.348354	-295.759387	471.212096	1324.077692	-301.015674	600.033910	1211.392667	55.275461	744.009182	991.112563	-48.732237	508.377357	1159.150570	-577.819077	720.195715	981.910733	-461.138616	-61.456115	1223.321193	-206.917593	81.379369	1256.984885	-408.010407	132.779269	1246.113808	-48.199210	113.194405	1185.681755	-369.020669	151.958335	1178.004463	-96.680112	-24.920754	1270.273258	-160.812585	-32.401488	1274.550964	-242.057188	58.290500	1125.275922	-28.468147	41.675242	1179.785543	-424.624098	123.951604	973.271650	-13.288324	187.240912	910.371504	-15.026054	212.037725	828.654798	-26.188772	217.873868	929.188473	-25.193491	256.439101	711.377187	-61.226612	261.191035	697.389205	-179.618236	214.311960	550.053649	-34.271356	216.939492	461.866153	-49.193381	175.829277	383.852516	-50.805940	246.550483	457.765701	-74.127706	135.830833	257.079348	-73.365745	70.453829	222.664398	-108.272359	374.554046	159.771328	-117.555562	255.684788	163.279123	-44.579453	282.225531	178.256813	-157.578203	152.829755	1112.581782	-472.909364	236.277584	1099.253163	-491.736705	254.008221	1128.570872	-476.795861	302.625491	1042.686616	-512.093029	429.694260	981.730885	-517.116758	454.938239	967.153603	-387.311413	321.218182	847.397697	-507.212201	291.392489	773.506887	-474.437370	220.949159	720.876778	-453.605797	319.648173	758.192349	-453.525507	142.521005	630.164233	-414.724118	71.152765	611.622534	-359.508226	353.370802	485.491751	-363.936265	265.893667	518.308394	-320.965691	233.510154	509.651909	-433.752612	-219.957430	944.360878	-236.441765	-14.450188	81.054595	-437.354858	-14.397028	80.799173	-37.038349	
751	3.7550	559.961408	1399.221815	-157.920292	493.172497	1414.881461	-462.280958	457.471767	1492.073767	-297.869834	469.274165	1323.643568	-302.953571	600.248890	1211.942713	52.656781	743.916837	991.061572	-49.249960	507.051848	1158.119962	-577.783902	719.927281	982.010370	-461.010459	-62.551975	1223.313581	-206.471245	79.703530	1256.950503	-407.397283	131.779658	1246.824601	-47.641069	112.294467	1186.711334	-369.031474	151.194970	1178.594650	-95.872606	-25.757869	1270.146074	-160.390060	-33.759501	1274.723397	-241.502819	57.437044	1125.418366	-27.783970	39.859928	1180.393989	-423.558219	123.916905	973.409847	-12.912568	187.300917	910.685908	-14.447843	212.384326	829.035896	-25.332310	217.812224	929.671846	-24.666782	256.390908	711.175391	-60.012793	261.427418	697.230310	-178.568880	211.147862	550.623018	-33.152812	212.056409	462.468465	-48.189858	169.690963	385.047447	-49.900049	241.782232	457.723754	-72.964766	127.680721	258.898097	-72.867876	61.933711	225.161056	-108.196354	365.066917	158.050171	-117.290161	246.200259	163.006489	-44.578208	273.154190	177.748011	-157.490139	152.016830	1112.644699	-471.843180	235.557315	1099.654840	-490.528257	253.004596	1129.408050	-476.045245	302.308606	1043.339749	-509.872736	430.653256	985.111495	-514.693948	455.840278	971.150737	-384.342217	324.981003	848.575445	-504.849362	295.778884	774.329867	-473.348694	226.043939	720.447945	-453.356439	324.765527	759.499894	-452.903464	148.856186	628.116380	-415.238635	77.449111	607.997716	-360.178539	362.722187	488.950005	-364.177656	274.982553	520.495210	-320.694625	242.302269	510.079782	-434.186827	-220.042355	944.408941	-236.399113	-14.431805	81.046939	-437.364014	-14.378888	80.889888	-37.092734	
752	3.7600	559.031527	1399.129474	-160.685956	490.014756	1414.264158	-464.072422	455.620457	1491.700896	-299.904601	467.265586	1323.110394	-304.851156	600.367523	1212.539927	50.558817	743.843775	991.028851	-49.780570	505.909344	1157.206699	-577.946783	719.640241	982.111887	-460.922727	-63.352947	1222.798687	-204.990850	78.050507	1256.940079	-406.842372	130.614198	1247.401940	-47.024495	111.019899	1187.715898	-369.025356	150.276592	1178.861582	-95.191406	-26.824306	1269.938219	-159.965273	-35.250017	1274.737459	-241.063425	56.597040	1125.393460	-27.192172	38.794195	1180.814837	-423.128326	124.029348	973.457420	-12.768900	187.777516	911.080336	-14.164910	213.285785	829.626026	-24.703639	218.137808	930.326259	-24.277966	257.066102	711.188210	-58.952801	262.357032	697.250628	-177.533315	208.542069	551.313085	-31.999056	207.710030	463.331754	-47.277221	163.818049	386.773731	-49.019947	237.368086	457.971289	-71.888625	119.495621	261.192958	-72.556188	53.471801	228.291679	-108.117518	355.570637	156.849501	-117.117002	236.693601	163.388148	-44.565697	263.978629	177.751085	-157.475670	151.218137	1111.794288	-470.761049	234.882796	1099.476781	-489.151586	251.968924	1129.701336	-475.459289	302.382800	1043.564034	-507.124474	431.509460	987.955252	-511.879978	456.486317	974.738921	-381.102099	328.295774	849.413419	-503.326916	300.102069	774.598203	-472.231204	231.125222	719.439931	-453.078293	329.173165	760.114299	-451.450840	155.250031	625.453674	-415.805640	83.849059	603.588755	-361.327317	372.268466	492.491277	-365.863097	283.457747	521.442440	-321.197829	251.104692	509.909367	-434.639461	-220.129061	944.390328	-236.305261	-14.442998	81.053521	-437.379862	-14.376869	80.888759	-37.103339	
753	3.7650	558.126865	1398.742762	-163.428078	486.826264	1413.500147	-465.814452	453.704386	1491.089843	-301.957907	465.261695	1322.345585	-306.819790	600.427657	1212.960614	48.864138	743.740786	990.934607	-50.661856	504.526718	1156.105280	-578.037543	719.318858	982.208578	-460.874523	-64.692773	1222.526179	-204.560465	76.322386	1256.879768	-406.266788	129.344741	1247.619686	-46.466883	109.826267	1188.975003	-369.966871	149.135005	1178.898949	-94.426092	-27.931335	1269.684625	-159.629337	-36.795946	1274.561794	-240.580991	55.643680	1125.200172	-26.668774	37.638556	1180.945158	-422.978768	124.227954	973.450220	-12.807615	188.467708	911.614971	-14.130141	214.626324	830.293062	-24.207018	218.676694	930.928961	-24.218211	258.374859	711.491623	-57.946632	263.958395	697.471364	-176.562831	206.552036	552.489925	-30.850858	203.706476	464.485475	-46.668920	158.223302	389.005222	-48.141334	233.245934	458.707387	-70.990674	110.827894	264.817523	-70.780482	45.090128	232.237315	-108.050926	346.069385	156.197860	-116.900561	227.252962	164.310540	-44.556174	254.974373	178.190841	-157.417533	150.597278	1110.672115	-469.465071	234.354289	1098.992393	-487.656989	251.062884	1129.742763	-474.736636	302.581747	1043.274715	-503.868688	432.140110	990.235275	-508.982065	456.720744	977.584431	-377.861627	331.381470	849.701668	-501.700867	304.235869	774.250161	-471.111541	236.046251	717.886164	-452.828352	333.221007	760.881203	-451.030414	161.530061	622.081296	-416.304661	90.156457	598.415959	-362.107176	381.394388	495.224683	-365.667276	291.889844	521.749240	-321.434721	259.909765	509.167683	-434.988219	-220.128502	944.371688	-236.433086	-14.446734	81.052515	-437.403209	-14.374504	80.902671	-37.107798	
754	3.7700	557.244353	1398.199287	-166.095347	483.594009	1412.749515	-467.562684	451.779312	1490.362174	-303.938226	463.290370	1321.468640	-308.766909	600.298316	1213.208317	46.841004	743.713622	990.730594	-51.133718	502.997883	1155.104076	-578.175633	718.969852	982.298678	-460.857387	-65.935675	1221.843106	-204.026465	74.566818	1256.892478	-405.750490	128.012374	1247.598699	-45.811222	107.787057	1189.150554	-368.889734	147.972164	1178.558414	-93.703880	-29.306755	1269.376384	-159.241470	-38.470971	1274.277499	-240.206145	54.778745	1124.767777	-26.219645	36.270189	1180.723875	-422.881477	124.551903	973.359789	-12.921572	189.285251	912.144698	-14.309000	216.322367	831.003566	-23.872842	219.344142	931.700246	-24.485287	260.345819	712.056028	-57.048828	265.314155	697.998550	-175.741502	205.136071	554.105809	-29.801726	200.255392	466.289863	-45.799243	153.063199	391.840376	-47.368647	229.597633	459.833373	-70.155645	103.580543	268.409183	-70.723985	36.946220	236.809598	-108.036956	336.634386	155.800783	-116.785409	217.914799	165.854523	-44.537728	246.120828	179.407887	-157.455821	150.052651	1109.711569	-468.012379	233.971789	1098.375781	-485.853663	250.331517	1129.595644	-473.742353	302.803481	1042.996041	-500.906059	432.453454	991.822113	-505.991608	456.673558	979.583914	-374.561304	334.219673	849.359727	-500.051714	308.072360	773.242271	-470.022651	240.796410	715.638426	-452.578407	337.114738	760.360519	-449.658123	167.891997	618.324212	-416.920765	96.341039	592.486192	-362.748621	390.447947	497.166094	-365.771990	299.983347	521.550196	-321.950054	268.652301	507.832412	-435.354994	-220.096926	944.368170	-236.547114	-14.445162	81.041929	-437.404615	-14.388187	80.921793	-37.119091	
